<svg width="134" height="24" viewBox="0 0 134 24" fill="none" xmlns="http://www.w3.org/2000/svg">
<g clip-path="url(#clip0_1_3190)">
<g clip-path="url(#clip1_1_3190)">
<g clip-path="url(#clip2_1_3190)">
<mask id="mask0_1_3190" style="mask-type:luminance" maskUnits="userSpaceOnUse" x="0" y="-1" width="134" height="25">
<path d="M133.268 -0.000976562H0.00219727V23.999H133.268V-0.000976562Z" fill="white"/>
</mask>
<g mask="url(#mask0_1_3190)">
<path d="M58.9816 17.4453V12.4418C59.009 12.0205 58.9462 11.5982 58.7973 11.203C58.6485 10.8079 58.4171 10.4491 58.1185 10.1506C57.82 9.85205 57.4612 9.62063 57.0661 9.47179C56.671 9.32296 56.2487 9.26013 55.8273 9.2875C55.2724 9.24459 54.7161 9.35329 54.2181 9.602C53.7201 9.8507 53.2991 10.2301 52.9999 10.6995C52.7203 10.2617 52.3338 9.90221 51.8769 9.6549C51.42 9.40759 50.9077 9.28058 50.3882 9.28582C49.9358 9.26563 49.486 9.36571 49.0848 9.57585C48.6836 9.786 48.3453 10.0987 48.1042 10.4822V9.50487H46.3645V17.4453H48.1085V12.986C48.0683 12.7148 48.0904 12.438 48.1729 12.1765C48.2555 11.915 48.3964 11.6757 48.5849 11.4767C48.7735 11.2776 49.0049 11.124 49.2615 11.0275C49.5182 10.9309 49.7934 10.894 50.0664 10.9194C51.2627 10.9194 51.8061 11.6776 51.8061 12.986V17.4453H53.5467V12.986C53.5066 12.7148 53.5287 12.438 53.6112 12.1765C53.6938 11.915 53.8346 11.6757 54.0232 11.4767C54.2118 11.2776 54.4431 11.124 54.6998 11.0275C54.9564 10.9309 55.2317 10.894 55.5047 10.9194C56.701 10.9194 57.2444 11.6776 57.2444 12.986V17.4453H58.9816ZM84.7618 9.50487H81.931V7.1122H80.1905V9.50487H78.5594V11.1368H80.1905V14.7258C80.1905 16.575 80.9487 17.6627 82.91 17.6627C83.6837 17.6646 84.4406 17.4374 85.0853 17.0098L84.5411 15.4874C84.0942 15.7935 83.5599 15.9461 83.0187 15.9221C82.1484 15.9221 81.8224 15.3787 81.8224 14.6171V11.0281H84.7568L84.7618 9.50487ZM99.4447 9.2875C99.0244 9.28233 98.6106 9.39075 98.2468 9.60133C97.883 9.8119 97.5829 10.1168 97.3781 10.4838V9.50487H95.6383V17.4453H97.3781V12.986C97.3781 11.6802 97.9223 10.9194 99.1187 10.9194C99.4898 10.9393 99.8561 11.0125 100.206 11.1368L100.75 9.50487C100.325 9.3798 99.8869 9.30681 99.4447 9.2875ZM77.2544 10.1578C76.2599 9.59136 75.1359 9.29157 73.9914 9.2875C72.0335 9.2875 70.7285 10.2665 70.7285 11.7889C70.7285 13.0947 71.7074 13.8555 73.4472 14.1824L74.2054 14.291C75.1844 14.3997 75.6191 14.7258 75.6191 15.1605C75.6191 15.8134 74.967 16.1395 73.7707 16.1395C72.8221 16.1861 71.8904 15.8759 71.159 15.27L70.4007 16.575C71.4283 17.2734 72.6396 17.6518 73.8819 17.6627C76.1659 17.6627 77.4709 16.575 77.4709 15.051C77.4709 13.6373 76.3832 12.8757 74.7513 12.6583L73.8827 12.553C73.1245 12.4443 72.5769 12.3356 72.5769 11.7948C72.5769 11.2539 73.1211 10.8166 74.1001 10.8166C74.9763 10.8135 75.8383 11.0382 76.6015 11.4687L77.2544 10.1578ZM123.371 9.2875C122.95 9.28224 122.536 9.39062 122.173 9.60121C121.809 9.81179 121.509 10.1167 121.304 10.4838V9.50487H119.563V17.4453H121.304V12.986C121.304 11.6802 121.847 10.9194 123.045 10.9194C123.416 10.9393 123.782 11.0125 124.132 11.1368L124.676 9.50487C124.251 9.3798 123.813 9.30681 123.371 9.2875ZM101.185 13.5294C101.161 14.088 101.254 14.6456 101.46 15.1654C101.666 15.6853 101.98 16.1558 102.38 16.546C102.78 16.9363 103.259 17.2375 103.784 17.4299C104.309 17.6224 104.869 17.7017 105.426 17.6627C106.456 17.6888 107.461 17.3411 108.255 16.6837L107.384 15.27C106.797 15.7427 106.071 16.0091 105.318 16.0283C104.991 16.0406 104.665 15.9834 104.362 15.8605C104.059 15.7377 103.785 15.552 103.559 15.3156C103.333 15.0792 103.159 14.7976 103.05 14.4892C102.941 14.1809 102.898 13.8529 102.925 13.5269C102.899 13.2015 102.941 12.8741 103.051 12.5664C103.16 12.2587 103.333 11.9776 103.559 11.7416C103.784 11.5055 104.057 11.3199 104.36 11.197C104.662 11.074 104.987 11.0164 105.313 11.0281C105.691 11.0123 106.068 11.0712 106.422 11.2013C106.777 11.3314 107.102 11.5302 107.38 11.7863L108.25 10.3726C107.448 9.73122 106.449 9.38553 105.422 9.39366C104.86 9.33617 104.293 9.40269 103.759 9.58851C103.226 9.77433 102.74 10.0749 102.336 10.4691C101.931 10.8633 101.618 11.3414 101.419 11.8698C101.219 12.3981 101.138 12.9638 101.181 13.5269M117.278 13.5269V9.50487H115.538V10.4838C115.243 10.1037 114.863 9.79759 114.428 9.58992C113.994 9.38225 113.517 9.2787 113.036 9.2875C112.504 9.29205 111.979 9.40371 111.492 9.61581C111.005 9.82791 110.565 10.1361 110.2 10.5219C109.834 10.9078 109.55 11.3634 109.365 11.8614C109.179 12.3595 109.096 12.8899 109.121 13.4208C109.096 13.9517 109.179 14.482 109.365 14.9801C109.55 15.4782 109.834 15.9337 110.2 16.3196C110.565 16.7054 111.005 17.0136 111.492 17.2257C111.979 17.4378 112.504 17.5495 113.036 17.554C113.517 17.5628 113.994 17.4593 114.428 17.2516C114.863 17.0439 115.243 16.7379 115.538 16.3577V17.3358H117.277L117.278 13.5269ZM110.86 13.5269C110.834 13.2008 110.876 12.8727 110.985 12.5642C111.095 12.2558 111.268 11.9741 111.494 11.7376C111.721 11.5012 111.994 11.3155 112.298 11.1927C112.601 11.07 112.927 11.013 113.254 11.0256C113.578 11.0223 113.9 11.0856 114.199 11.2116C114.498 11.3376 114.768 11.5235 114.992 11.758C115.216 11.9924 115.39 12.2703 115.503 12.5746C115.615 12.8789 115.664 13.203 115.647 13.5269C115.66 13.8496 115.608 14.1717 115.494 14.4739C115.38 14.776 115.206 15.052 114.982 15.2851C114.759 15.5182 114.49 15.7038 114.193 15.8305C113.896 15.9572 113.577 16.0225 113.254 16.0225C112.931 16.0225 112.611 15.9572 112.314 15.8305C112.017 15.7038 111.748 15.5182 111.525 15.2851C111.301 15.052 111.127 14.776 111.013 14.4739C110.899 14.1717 110.847 13.8496 110.86 13.5269ZM90.0863 9.28498C89.5522 9.28033 89.0229 9.38577 88.5313 9.59471C88.0397 9.80365 87.5965 10.1116 87.2291 10.4994C86.8618 10.8872 86.5783 11.3465 86.3963 11.8487C86.2143 12.3509 86.1377 12.8851 86.1713 13.4182C86.1404 13.9599 86.2226 14.502 86.4124 15.0102C86.6023 15.5184 86.8958 15.9815 87.2743 16.3702C87.6528 16.7589 88.1079 17.0646 88.6109 17.268C89.1139 17.4714 89.6536 17.5679 90.1959 17.5515C91.3788 17.592 92.5368 17.206 93.4588 16.4638L92.5919 15.1647C91.9495 15.7024 91.1452 16.0088 90.3079 16.035C89.7375 16.0624 89.1771 15.8774 88.7351 15.5158C88.293 15.1542 88.0006 14.6416 87.9144 14.0771H93.7882V13.4208C93.8969 11.0281 92.3745 9.2875 90.0897 9.2875M90.0897 10.9194C90.3497 10.9085 90.6091 10.9516 90.8516 11.046C91.094 11.1405 91.3142 11.2843 91.4982 11.4682C91.6823 11.6522 91.8261 11.8723 91.9207 12.1147C92.0153 12.3571 92.0585 12.6165 92.0477 12.8765H88.0239C88.0258 12.6108 88.0813 12.3481 88.1872 12.1044C88.293 11.8606 88.4471 11.6407 88.64 11.458C88.8329 11.2752 89.0608 11.1333 89.3099 11.0407C89.559 10.9482 89.8243 10.9069 90.0897 10.9194ZM133.27 13.5311V6.35059H131.529V10.4838C131.234 10.1036 130.854 9.79752 130.42 9.58984C129.986 9.38216 129.509 9.27864 129.028 9.2875C128.496 9.29193 127.971 9.40351 127.484 9.61556C126.996 9.82761 126.557 10.1358 126.191 10.5216C125.826 10.9075 125.542 11.3631 125.356 11.8612C125.171 12.3594 125.088 12.8898 125.112 13.4208C125.088 13.9517 125.171 14.4821 125.356 14.9803C125.542 15.4784 125.826 15.934 126.191 16.3199C126.557 16.7057 126.996 17.0139 127.484 17.226C127.971 17.438 128.496 17.5496 129.028 17.554C129.509 17.5629 129.986 17.4594 130.42 17.2517C130.854 17.044 131.234 16.7379 131.529 16.3577V17.3358H133.27V13.5311ZM126.853 13.5311C126.826 13.2051 126.868 12.877 126.977 12.5685C127.086 12.2601 127.26 11.9783 127.486 11.7419C127.712 11.5054 127.986 11.3197 128.289 11.1969C128.592 11.0742 128.918 11.0172 129.245 11.0298C129.57 11.0265 129.891 11.0898 130.19 11.2158C130.489 11.3418 130.759 11.5278 130.983 11.7622C131.208 11.9966 131.381 12.2746 131.494 12.5788C131.607 12.8831 131.656 13.2072 131.638 13.5311C131.653 13.8546 131.602 14.1777 131.488 14.481C131.375 14.7842 131.201 15.0613 130.977 15.2954C130.754 15.5296 130.485 15.716 130.187 15.8433C129.89 15.9707 129.569 16.0363 129.245 16.0363C128.921 16.0363 128.601 15.9707 128.303 15.8433C128.006 15.716 127.737 15.5296 127.513 15.2954C127.289 15.0613 127.116 14.7842 127.002 14.481C126.889 14.1777 126.838 13.8546 126.853 13.5311ZM68.6635 13.5311V9.50487H66.9212V10.4838C66.6261 10.1036 66.2463 9.79752 65.8121 9.58984C65.3778 9.38216 64.9011 9.27864 64.4199 9.2875C63.8884 9.29193 63.3632 9.40351 62.8758 9.61556C62.3884 9.82761 61.9488 10.1358 61.5832 10.5216C61.2177 10.9075 60.9337 11.3631 60.7483 11.8612C60.5628 12.3594 60.4797 12.8898 60.504 13.4208C60.4797 13.9517 60.5628 14.4821 60.7483 14.9803C60.9337 15.4784 61.2177 15.934 61.5832 16.3199C61.9488 16.7057 62.3884 17.0139 62.8758 17.226C63.3632 17.438 63.8884 17.5496 64.4199 17.554C64.9011 17.5629 65.3778 17.4594 65.8121 17.2517C66.2463 17.044 66.6261 16.7379 66.9212 16.3577V17.3358H68.6652L68.6635 13.5311ZM62.2463 13.5311C62.2192 13.2051 62.2617 12.877 62.3708 12.5685C62.48 12.2601 62.6534 11.9783 62.8796 11.7419C63.1057 11.5054 63.3795 11.3197 63.6828 11.1969C63.9861 11.0742 64.312 11.0172 64.6389 11.0298C64.9633 11.0265 65.285 11.0898 65.5839 11.2158C65.8829 11.3418 66.1528 11.5278 66.3771 11.7622C66.6013 11.9966 66.7751 12.2746 66.8877 12.5788C67.0003 12.8831 67.0493 13.2072 67.0316 13.5311C67.0465 13.8546 66.9956 14.1777 66.8821 14.481C66.7686 14.7842 66.5947 15.0613 66.3711 15.2954C66.1474 15.5296 65.8786 15.716 65.5809 15.8433C65.2832 15.9707 64.9627 16.0363 64.6389 16.0363C64.3151 16.0363 63.9947 15.9707 63.697 15.8433C63.3993 15.716 63.1305 15.5296 62.9068 15.2954C62.6832 15.0613 62.5093 14.7842 62.3958 14.481C62.2823 14.1777 62.2314 13.8546 62.2463 13.5311Z" fill="white"/>
<path d="M19.2851 21.3614C19.334 21.3985 19.377 21.4347 19.4258 21.4718H19.1731C17.7693 20.3272 16.6396 18.8828 15.867 17.2446C15.0943 15.6064 14.6982 13.816 14.7079 12.0047C14.6939 10.2122 15.0857 8.43981 15.8541 6.82028C16.6224 5.20074 17.7473 3.77609 19.1444 2.65308H19.5C20.1307 3.21931 20.7109 3.83949 21.2338 4.50655C22.2178 5.73947 22.9481 7.15492 23.3827 8.67133C23.8172 10.1878 23.9474 11.7752 23.7657 13.3421C23.584 14.9091 23.094 16.4246 22.324 17.8013C21.5541 19.1781 20.5192 20.3889 19.2792 21.3639" fill="#FF5A00"/>
<path d="M19.1749 21.4717C17.0783 23.1095 14.4943 23.9992 11.8338 23.9992C9.17337 23.9992 6.58933 23.1095 4.49278 21.4717C2.03136 19.4718 0.448557 16.5894 0.0818526 13.4392C-0.284852 10.289 0.593554 7.12021 2.52978 4.60839C3.49408 3.37223 4.6925 2.33818 6.05657 1.56534C7.42065 0.792506 8.92363 0.29602 10.4797 0.104256C12.0357 -0.087508 13.6142 0.0292081 15.1251 0.447735C16.636 0.866262 18.0496 1.5784 19.2852 2.54345C19.2423 2.58052 19.1934 2.61085 19.1504 2.65382C17.7533 3.77683 16.6284 5.20148 15.86 6.82102C15.0917 8.44055 14.6999 10.213 14.7139 12.0055C14.7042 13.8167 15.1003 15.6071 15.8729 17.2453C16.6456 18.8835 17.7753 20.3279 19.1791 21.4725" fill="#EB001B"/>
<path d="M38.5318 12.0047C38.5401 13.5688 38.2402 15.1192 37.649 16.5673C37.0578 18.0154 36.1871 19.3328 35.0866 20.4442C33.986 21.5556 32.6773 22.4393 31.235 23.0446C29.7928 23.65 28.2455 23.9652 26.6814 23.9723C24.0491 23.987 21.4902 23.1052 19.4259 21.4718C19.377 21.4347 19.334 21.3985 19.2852 21.3614C20.525 20.3864 21.5598 19.1756 22.3297 17.799C23.0996 16.4223 23.5895 14.9069 23.7712 13.34C23.9529 11.7732 23.8227 10.1858 23.3883 8.6695C22.9538 7.15317 22.2236 5.73778 21.2397 4.50489C20.7167 3.83763 20.1362 3.21744 19.505 2.65141L19.2852 2.43068C21.0708 1.09987 23.1903 0.290047 25.4084 0.0911296C27.6265 -0.107787 29.8564 0.311991 31.8503 1.30385C33.8442 2.2957 35.5242 3.82082 36.7037 5.70982C37.8832 7.59883 38.516 9.77779 38.5318 12.0047Z" fill="#F79E1B"/>
</g>
</g>
</g>
</g>
<defs>
<clipPath id="clip0_1_3190">
<rect width="133.27" height="24" fill="white"/>
</clipPath>
<clipPath id="clip1_1_3190">
<rect width="133.27" height="24" fill="white"/>
</clipPath>
<clipPath id="clip2_1_3190">
<rect width="133.266" height="24" fill="white" transform="translate(0.00219727)"/>
</clipPath>
</defs>
</svg>
