<svg width="74" height="24" viewBox="0 0 74 24" fill="none" xmlns="http://www.w3.org/2000/svg">
<g clip-path="url(#clip0_1_3179)">
<g clip-path="url(#clip1_1_3179)">
<g clip-path="url(#clip2_1_3179)">
<mask id="mask0_1_3179" style="mask-type:luminance" maskUnits="userSpaceOnUse" x="0" y="0" width="74" height="24">
<path d="M73.6287 0H0.00146484V24H73.6287V0Z" fill="white"/>
</mask>
<g mask="url(#mask0_1_3179)">
<path d="M73.6277 23.4884H68.0762C67.905 22.5487 67.6491 21.5243 67.4779 20.5847C67.3933 20.1576 67.3077 19.9864 66.795 20.072H60.1326C59.7912 20.072 59.62 20.1576 59.5353 20.4991C59.1929 21.4387 58.8515 22.2928 58.5119 23.2325C58.4263 23.3181 58.3407 23.4884 58.1705 23.4884H52.1025C52.4449 22.5487 52.872 21.6946 53.2134 20.8405C55.7766 14.607 58.3361 8.45626 60.9867 2.22087C61.1677 1.63053 61.5473 1.12092 62.061 0.778411C62.5748 0.435899 63.1912 0.281548 63.8058 0.341514H68.6744C68.8447 1.11 69.0159 1.8785 69.187 2.56232C70.4682 8.71211 71.7493 14.7763 73.0304 20.9261C73.2004 21.6946 73.3713 22.4634 73.5431 23.2325C73.5884 23.3111 73.6172 23.3982 73.6277 23.4884ZM66.3708 15.2889C65.7729 12.4699 65.175 9.65117 64.577 6.83275L61.4993 15.2889H66.3708Z" fill="#1534CC"/>
<path d="M49.4565 0C50.225 0.171189 50.9088 0.255854 51.6773 0.427043C52.3602 0.598232 52.9584 0.768491 53.7241 1.02528C53.2971 2.64785 52.9556 4.27043 52.6142 5.89394C51.6745 5.63715 50.8204 5.2957 49.8807 5.12452C48.646 4.82577 47.3577 4.82577 46.123 5.12452C45.5978 5.29456 45.1063 5.55494 44.6706 5.89394C44.5119 6.01321 44.3831 6.16777 44.2944 6.34538C44.2057 6.523 44.1596 6.71882 44.1596 6.91735C44.1596 7.11589 44.2057 7.3117 44.2944 7.48932C44.3831 7.66694 44.5119 7.82149 44.6706 7.94077C45.147 8.35815 45.6616 8.72977 46.2076 9.05071C47.4041 9.82013 48.6852 10.4174 49.8807 11.1906C50.5742 11.6218 51.1686 12.1947 51.6249 12.8719C52.0812 13.549 52.3892 14.315 52.5286 15.1196C52.7349 16.4889 52.5378 17.8886 51.9613 19.1477C51.3848 20.4067 50.4539 21.4705 49.2825 22.209C47.6795 23.1941 45.8633 23.7799 43.9868 23.9172C41.3932 24.1507 38.7791 23.8603 36.3 23.0631C36.1288 22.9775 35.9586 22.9775 35.7874 22.8919C35.7018 22.8919 35.7018 22.8063 35.6162 22.8063C35.9586 21.0982 36.3 19.4756 36.7271 17.7674C37.1541 17.9377 37.5812 18.1089 37.9226 18.2791C39.825 19.1241 41.9337 19.3917 43.9868 19.0485C44.5467 18.9466 45.074 18.7121 45.5247 18.3647C45.7602 18.2297 45.9586 18.0384 46.102 17.808C46.2454 17.5775 46.3293 17.315 46.3463 17.0441C46.3632 16.7732 46.3127 16.5023 46.1992 16.2557C46.0857 16.0091 45.9128 15.7946 45.6959 15.6313C45.0754 15.1282 44.4187 14.6717 43.731 14.2655C42.621 13.5816 41.5101 13.069 40.4849 12.3005C39.8356 11.8671 39.2865 11.3 38.8741 10.6371C38.4618 9.97432 38.1957 9.23107 38.0938 8.45713C37.9558 7.31031 38.1199 6.14733 38.5698 5.08347C39.0197 4.0196 39.7399 3.09179 40.6589 2.392C42.303 1.09891 44.2956 0.325668 46.3816 0.171189C46.4672 0.171189 46.6375 0.0855947 46.723 0.0855947C47.6627 0 48.5168 0 49.4565 0Z" fill="#1534CC"/>
<path d="M27.9323 0.426924C27.5899 1.19542 27.3331 1.87924 26.9917 2.64773C24.1736 9.48042 21.2689 16.314 18.4508 23.1467C18.2796 23.4891 18.1085 23.5738 17.8535 23.5738H12.4685C12.322 23.5829 12.1776 23.5345 12.0661 23.439C11.9546 23.3435 11.8847 23.2083 11.8712 23.0621C10.3349 17.0828 8.79725 11.1036 7.2584 5.1244C7.16651 4.61275 6.9462 4.13282 6.61814 3.72958C6.29008 3.32634 5.86501 3.013 5.38276 2.81892C3.73396 2.08381 2.01734 1.5114 0.257318 1.10982C0.210923 1.11531 0.163887 1.11039 0.119629 1.09543C0.0753722 1.08046 0.035006 1.05582 0.00146484 1.0233C0.00146484 0.34133 0.00146484 0.34133 0.685292 0.34133H10.1649C10.8507 0.307755 11.5237 0.536207 12.0473 0.980379C12.571 1.42455 12.9061 2.05121 12.9849 2.73333C13.7534 6.92002 14.6075 11.1895 15.3759 15.3744C15.3759 15.5455 15.4606 15.7158 15.4606 15.9726C15.5462 15.8014 15.6318 15.7158 15.6318 15.6302C17.5958 10.6769 19.5617 5.63703 21.5257 0.682778C21.5548 0.573328 21.6229 0.478258 21.7171 0.415396C21.8113 0.352534 21.9252 0.326199 22.0374 0.34133H27.5043C27.6358 0.410471 27.7844 0.440193 27.9323 0.426924Z" fill="#1534CC"/>
<path d="M25.5403 23.5738C27.1629 15.8015 28.7864 8.19937 30.4945 0.427002H36.4722C36.2164 1.62254 35.9596 2.73248 35.7037 3.92894C34.3379 10.249 32.9712 16.6537 31.6901 22.9756C31.6045 23.4027 31.4342 23.5738 31.0072 23.5738H25.5403Z" fill="#1534CC"/>
</g>
</g>
</g>
</g>
<defs>
<clipPath id="clip0_1_3179">
<rect width="73.63" height="24" fill="white"/>
</clipPath>
<clipPath id="clip1_1_3179">
<rect width="73.63" height="24" fill="white"/>
</clipPath>
<clipPath id="clip2_1_3179">
<rect width="73.6272" height="24" fill="white" transform="translate(0.00146484)"/>
</clipPath>
</defs>
</svg>
